<?xml version="1.0" encoding="UTF-8"?>
<svg width="103px" height="103px" viewBox="0 0 103 103" version="1.1" xmlns="http://www.w3.org/2000/svg" xmlns:xlink="http://www.w3.org/1999/xlink">
    <!-- Generator: Sketch 52.2 (67145) - http://www.bohemiancoding.com/sketch -->
    <title>Group 3</title>
    <desc>Created with Sketch.</desc>
    <defs>
        <polygon id="path-1" points="0.5 0 103.5 0 103.5 103 0.5 103"></polygon>
    </defs>
    <g id="Desktop" stroke="none" stroke-width="1" fill="none" fill-rule="evenodd">
        <g id="Home_Default" transform="translate(-877.000000, -964.000000)">
            <g id="Nuestros-Logros" transform="translate(623.000000, 929.000000)">
                <g id="Group-3" transform="translate(253.500000, 35.000000)">
                    <mask id="mask-2" fill="white">
                        <use xlink:href="#path-1"></use>
                    </mask>
                    <g id="Clip-2"></g>
                    <path d="M74.4653543,94.0990157 L66.4769744,81.3051181 L83.5690945,54.5616142 L95.3086614,72.546063 C90.8277559,81.7513839 83.4879921,89.3139764 74.4653543,94.0990157 Z M14.4090551,81.5891791 L31.6230315,54.2372047 L38.3748031,61.7391732 L33.2248031,72.0391732 L46.5864173,80.3927165 L41.5377953,92.1728346 L56.4200787,99.4720472 C54.9602362,99.6139764 53.5005965,99.6748031 52,99.6748031 C36.8135827,99.6748031 23.2492126,92.5988248 14.4090551,81.5891791 Z M40.361811,13.2805118 L59.0153543,13.2805118 L55.0413386,19.9309055 L59.0356299,26.5812992 L40.3820866,26.5812992 L40.3820866,13.2805118 L40.361811,13.2805118 Z M38.6992126,43.0045276 L71.4444941,95.5588583 C68.4840551,96.8767717 65.3818898,97.8905512 62.1580709,98.580124 L45.8362205,90.5712657 L50.763189,79.0748031 L37.5435039,70.8226378 L42.3488189,61.1917323 L33.4478346,51.3175197 L38.6992126,43.0045276 Z M52,3.32519685 C78.5610236,3.32519685 100.174803,24.9389764 100.174803,51.5 C100.174803,57.6234311 99.0192972,63.5033524 96.9104331,68.8964567 L83.5488189,48.4383858 L64.530315,78.1826772 L40.361811,39.3954724 L40.361811,29.9064961 L64.8952756,29.9064961 L58.9139764,19.9309055 L64.8952756,9.95531496 L37.0568898,9.95531496 L37.0568898,11.6179134 L37.0568898,29.8862205 L37.0568898,39.3753996 L12.2801181,78.7301181 C6.9476378,70.9848425 3.82519685,61.5972441 3.82519685,51.5 C3.82519685,24.9389764 25.4389764,3.32519685 52,3.32519685 Z M52,0 C23.5938976,0 0.5,23.0938976 0.5,51.5 C0.5,79.9061024 23.5938976,103 52,103 C80.4061024,103 103.5,79.9061024 103.5,51.5 C103.5,23.0938976 80.4061024,0 52,0 Z" id="Fill-1" fill="#376697" mask="url(#mask-2)"></path>
                </g>
            </g>
        </g>
    </g>
</svg>