<?xml version="1.0" encoding="UTF-8"?>
<svg width="29px" height="29px" viewBox="0 0 29 29" version="1.1" xmlns="http://www.w3.org/2000/svg" xmlns:xlink="http://www.w3.org/1999/xlink">
    <!-- Generator: Sketch 55.1 (78136) - https://sketchapp.com -->
    <title>linkedin</title>
    <desc>Created with Sketch.</desc>
    <g id="Recomendacion-de-compartir" stroke="none" stroke-width="1" fill="none" fill-rule="evenodd">
        <g id="Catálogo_Ficha-de-producto-Región-Sur" transform="translate(-879.000000, -655.000000)" fill-rule="nonzero">
            <g id="Header" transform="translate(0.000000, 243.000000)">
                <g id="Group-4-Copy" transform="translate(732.000000, 412.000000)">
                    <g id="linkedin" transform="translate(147.000000, 0.000000)">
                        <ellipse id="Oval" fill="#007AB9" cx="14.3968319" cy="14.5246754" rx="14.3968319" ry="14.2705439"></ellipse>
                        <path d="M22.9987965,15.6729737 L22.9987965,21.5564123 L19.5575487,21.5564123 L19.5575487,16.0672719 C19.5575487,14.6890088 19.0606991,13.7477807 17.8147257,13.7477807 C16.863885,13.7477807 16.2990265,14.3814561 16.0495752,14.9950351 C15.9589823,15.2143158 15.9356283,15.5188158 15.9356283,15.8263684 L15.9356283,21.5561579 L12.4941239,21.5561579 C12.4941239,21.5561579 12.5403186,12.2593684 12.4941239,11.2970263 L15.935885,11.2970263 L15.935885,12.7508421 C15.9289558,12.7622895 15.9192035,12.7734825 15.9130442,12.7844211 L15.935885,12.7844211 L15.935885,12.7508421 C16.3932124,12.0533158 17.2088053,11.0561228 19.0373451,11.0561228 C21.3013982,11.0561228 22.9987965,12.5224035 22.9987965,15.6729737 L22.9987965,15.6729737 Z M8.8940177,6.35176316 C7.71682301,6.35176316 6.94665487,7.1177193 6.94665487,8.12407018 C6.94665487,9.10905263 7.69449558,9.89714035 8.84884956,9.89714035 L8.87117699,9.89714035 C10.071469,9.89714035 10.8177699,9.10905263 10.8177699,8.12407018 C10.7949292,7.1177193 10.071469,6.35176316 8.8940177,6.35176316 L8.8940177,6.35176316 Z M7.15119469,21.5564123 L10.5914159,21.5564123 L10.5914159,11.2970263 L7.15119469,11.2970263 L7.15119469,21.5564123 Z" id="Shape" fill="#F1F2F2"></path>
                    </g>
                </g>
            </g>
        </g>
    </g>
</svg>