<?xml version="1.0" encoding="UTF-8"?>
<svg width="28px" height="23px" viewBox="0 0 28 23" version="1.1" xmlns="http://www.w3.org/2000/svg" xmlns:xlink="http://www.w3.org/1999/xlink">
    <!-- Generator: Sketch 52.2 (67145) - http://www.bohemiancoding.com/sketch -->
    <title>Group 12</title>
    <desc>Created with Sketch.</desc>
    <g id="Mobile" stroke="none" stroke-width="1" fill="none" fill-rule="evenodd">
        <g id="OIMA_Blog-Evento" transform="translate(-32.000000, -610.000000)" fill="#000000">
            <g id="Group-12" transform="translate(32.000000, 610.000000)">
                <polygon id="Fill-1" points="3 6 4 6 4 5 3 5"></polygon>
                <polygon id="Fill-2" points="7 6 8 6 8 5 7 5"></polygon>
                <polygon id="Fill-3" points="4 6 5 6 5 5 4 5"></polygon>
                <polygon id="Fill-4" points="18 4 19 4 19 3 18 3"></polygon>
                <polygon id="Fill-5" points="22 4 23 4 23 3 22 3"></polygon>
                <polygon id="Fill-6" points="21 4 22 4 22 3 21 3"></polygon>
                <path d="M1.82009226,3.83170787 L8.17990774,3.83170787 L8.17990774,8.21709556 L7.01988724,7.23062071 L1.82009226,7.23062071 L1.82009226,3.83170787 Z M9,10 L9,3 L1,3 L1,8.06232858 L6.72151034,8.06232858 L9,10 Z" id="Fill-7"></path>
                <path d="M16,0 L16,7 L18.2785091,5.06232858 L24,5.06232858 L24,0 L16,0 Z M16.8200993,0.831707873 L23.1799691,0.831707873 L23.1799691,4.23069002 L17.980198,4.23069002 L16.8200993,5.21716487 L16.8200993,0.831707873 Z" id="Fill-8"></path>
                <polygon id="Fill-9" points="12 20 17 20 17 19 12 19"></polygon>
                <path d="M25.9141559,19.1464757 L27.2662153,19.1464757 L27.2662153,17.960462 L25.9141559,17.960462 L25.9141559,19.1464757 Z M25.1803713,22.2465709 L24.1330771,22.2465709 L24.1330771,17.5674259 L23.3992924,17.5674259 L23.3992924,22.2465709 L19.9969775,22.2465709 L19.9969775,17.5838103 L19.2631928,17.5838103 L19.2631928,22.2465709 L18.2159598,22.2465709 L18.2159598,17.960462 L18.2159598,16.5017525 C18.2159598,15.8837297 18.7056388,15.3810251 19.3075868,15.3810251 L24.0887443,15.3810251 C24.6906923,15.3810251 25.1803713,15.8837297 25.1803713,16.5017525 L25.1803713,22.2465709 Z M19.9512383,12.5861434 C19.9512383,11.5973069 20.734798,10.7928415 21.6980738,10.7928415 C22.6612885,10.7928415 23.4449094,11.5973069 23.4449094,12.5861434 C23.4449094,13.5749799 22.6612885,14.3793825 21.6980738,14.3793825 C20.7348591,14.3793825 19.9512383,13.5749799 19.9512383,12.5861434 Z M17.4821751,16.5017525 L17.4821751,17.2071585 L16.4805591,17.2071585 L16.4805591,12.5861434 L15.7467744,12.5861434 L15.7467744,17.2071585 L12.3445818,17.2071585 L12.3445818,12.6308394 L11.6107971,12.6308394 L11.6107971,17.2070329 L10.5177637,17.2070329 L10.5177637,16.5015642 L10.5177637,11.4622145 C10.5177637,10.8443173 11.0074427,10.3415499 11.6093295,10.3415499 L12.6580913,10.3415499 L13.9798209,13.1002731 L15.4761913,10.3415499 L16.3906705,10.3415499 C16.9926185,10.3415499 17.4822974,10.8442545 17.4822974,11.4622145 L17.4821751,16.5017525 Z M14.6361913,10.3416127 L14.0200568,11.4775945 L13.4758332,10.3416127 L14.6361913,10.3416127 Z M12.2531033,7.54660543 C12.2531033,6.55776897 13.0367242,5.75330355 14,5.75330355 C14.9632147,5.75330355 15.7467744,6.55776897 15.7467744,7.54660543 C15.7467744,8.53544189 14.9632147,9.33997008 14,9.33997008 C13.0367242,9.33997008 12.2531033,8.53550466 12.2531033,7.54660543 Z M9.78397903,17.960462 L9.78397903,22.2465709 L8.73668487,22.2465709 L8.73668487,17.5674259 L8.0029002,17.5674259 L8.0029002,22.2465709 L4.60064643,22.2465709 L4.60064643,17.5838103 L3.86686176,17.5838103 L3.86686176,22.2465709 L2.81956759,22.2465709 L2.81956759,16.5015642 C2.81956759,15.8836041 3.30930771,15.3808996 3.91119458,15.3808996 L8.69241319,15.3808996 C9.29430007,15.3808996 9.78397903,15.8836041 9.78397903,16.5015642 L9.78397903,17.960462 Z M4.55490718,12.5861434 C4.55490718,11.5973069 5.33852806,10.7928415 6.30174274,10.7928415 C7.26495741,10.7928415 8.04863944,11.5973069 8.04863944,12.5861434 C8.04863944,13.5749799 7.26501856,14.3793825 6.30174274,14.3793825 C5.33852806,14.3793825 4.55490718,13.5749799 4.55490718,12.5861434 Z M0.733784669,19.1464757 L2.08578292,19.1464757 L2.08578292,17.960462 L0.733784669,17.960462 L0.733784669,19.1464757 Z M25.9141559,17.2073468 L25.9141559,16.5017525 C25.9141559,15.4684083 25.0952522,14.6277216 24.0887443,14.6277216 L23.1792793,14.6277216 C23.7855078,14.1629961 24.1788163,13.4208037 24.1788163,12.5861434 C24.1788163,11.18186 23.0660319,10.039538 21.6981961,10.039538 C20.3304215,10.039538 19.2175759,11.1819228 19.2175759,12.5861434 C19.2175759,13.4208665 19.6108845,14.1629961 20.2171741,14.6277216 L19.3077091,14.6277216 C18.8987465,14.6277216 18.5207862,14.766455 18.2160821,15.0006068 L18.2160821,11.4622145 C18.2160821,10.4289331 17.3971173,9.58824637 16.3906705,9.58824637 L15.4810832,9.58824637 C16.0874339,9.12352086 16.4807425,8.38132853 16.4807425,7.54660543 C16.4807425,6.14238483 15.3679581,5 14.0001223,5 C12.6322254,5 11.5194409,6.14244761 11.5194409,7.54660543 C11.5194409,8.38132853 11.9126884,9.12352086 12.5189779,9.58824637 L11.6094518,9.58824637 C10.6029439,9.58824637 9.78410133,10.4288704 9.78410133,11.4622145 L9.78410133,15.0004813 C9.4794584,14.7663922 9.10143699,14.6277216 8.69253549,14.6277216 L7.78300939,14.6277216 C8.38929897,14.1629961 8.78254641,13.4208037 8.78254641,12.5861434 C8.78254641,11.18186 7.66970081,10.039538 6.30186504,10.039538 C4.93402926,10.039538 3.82124481,11.1819228 3.82124481,12.5861434 C3.82124481,13.4208665 4.21449225,14.1629961 4.82078183,14.6277216 L3.91119458,14.6277216 C2.90462546,14.6277216 2.08578292,15.4684083 2.08578292,16.5017525 L2.08578292,17.2073468 L0,17.2073468 L0,19.899842 L2.08578292,19.899842 L2.08578292,23 L10.5177637,23 L10.5177637,17.960462 L17.4821751,17.960462 L17.4821751,22.9998744 L25.9141559,22.9998744 L25.9141559,19.8997792 L28,19.8997792 L28,17.2072213 L25.9141559,17.2073468 Z" id="Fill-10"></path>
            </g>
        </g>
    </g>
</svg>