<?xml version="1.0" encoding="UTF-8"?>
<svg width="91px" height="103px" viewBox="0 0 91 103" version="1.1" xmlns="http://www.w3.org/2000/svg" xmlns:xlink="http://www.w3.org/1999/xlink">
    <!-- Generator: Sketch 52.2 (67145) - http://www.bohemiancoding.com/sketch -->
    <title>Group 7</title>
    <desc>Created with Sketch.</desc>
    <g id="Desktop" stroke="none" stroke-width="1" fill="none" fill-rule="evenodd">
        <g id="Home_Default" transform="translate(-350.000000, -964.000000)" fill="#376697">
            <g id="Estadísticas-OIMA" transform="translate(215.000000, 928.000000)">
                <g id="Group-7" transform="translate(135.000000, 36.000000)">
                    <path d="M56.6603774,39.4833333 C56.6603774,51.8433333 46.7018868,61.8 34.3396226,61.8 C21.9773585,61.8 12.0188679,51.8433333 12.0188679,39.4833333 C12.0188679,27.1233333 21.9773585,17.1666667 34.3396226,17.1666667 C46.7018868,17.1666667 56.6603774,27.1233333 56.6603774,39.4833333 Z M75.5471698,99.5666667 L3.43396226,99.5666667 L3.43396226,10.3 L75.5471698,10.3 L75.5471698,32.6166667 L70.3962264,32.6166667 C68.5075472,32.6166667 66.9622642,34.1616667 66.9622642,36.05 L59.9226415,36.05 C58.2056604,23.5183333 47.5603774,13.7333333 34.3396226,13.7333333 C20.0886792,13.7333333 8.58490566,25.235 8.58490566,39.4833333 C8.58490566,53.7316667 20.0886792,65.2333333 34.3396226,65.2333333 C47.3886792,65.2333333 58.2056604,55.4483333 59.9226415,42.9166667 L66.9622642,42.9166667 C66.9622642,44.805 68.5075472,46.35 70.3962264,46.35 L75.5471698,46.35 L75.5471698,99.5666667 Z M3.43396226,6.86666667 L6.86792453,6.86666667 L6.86792453,3.43333333 L3.43396226,3.43333333 L3.43396226,6.86666667 Z M10.3018868,6.86666667 L13.7358491,6.86666667 L13.7358491,3.43333333 L10.3018868,3.43333333 L10.3018868,6.86666667 Z M17.1698113,6.86666667 L20.6037736,6.86666667 L20.6037736,3.43333333 L17.1698113,3.43333333 L17.1698113,6.86666667 Z M87.5660377,32.6166667 L78.9811321,32.6166667 L78.9811321,0 L0,0 L0,103 L78.9811321,103 L78.9811321,46.35 L87.5660377,46.35 C89.454717,46.35 91,44.805 91,42.9166667 L91,36.05 C91,34.1616667 89.454717,32.6166667 87.5660377,32.6166667 Z" id="Fill-1"></path>
                    <polygon id="Fill-3" points="10.4210526 70 7 70 7 96 72 96 72 92.5333333 10.4210526 92.5333333"></polygon>
                    <path d="M58.0100588,72.2454545 C57.5,71.0363636 56.3041765,70 54.7705882,70 C52.8924118,70 51.3588235,71.5562727 51.3588235,73.4545455 L51.3588235,74.1471818 L45.7277059,78.9818182 C45.5588235,78.8090909 45.0470588,78.6363636 44.7058824,78.6363636 C44.0218235,78.6363636 43.3411765,78.8090909 42.8294118,79.1545455 L34.4705882,74.8363636 C34.3,73.1090909 32.9352941,71.7272727 31.0588235,71.7272727 C29.1823529,71.7272727 27.6470588,73.2835455 27.6470588,75.1818182 L27.6470588,75.5272727 L18.7747647,82.2636364 C18.2647059,82.2636364 17.9218235,82.0909091 17.4117647,82.0909091 C15.5352941,82.0909091 14,83.6471818 14,85.5454545 C14,87.4454545 15.5352941,89 17.4117647,89 C19.2882353,89 20.8235294,87.4454545 20.8235294,85.5454545 L20.8235294,85.2 L29.863,78.4653636 C30.2058824,78.6363636 30.7159412,78.8090909 31.2294118,78.8090909 C31.9117647,78.8090909 32.5941176,78.6363636 33.1058824,78.2909091 L41.463,82.6090909 C41.6352941,84.3363636 43,85.7181818 44.8747647,85.7181818 C46.7529412,85.7181818 48.2865294,84.1636364 48.2865294,82.2636364 L48.2865294,81.5727273 L53.9176471,76.7380909 C54.2571176,76.9090909 54.7705882,76.9090909 55.1100588,76.9090909 C56.3041765,76.9090909 57.1571176,76.3909091 57.8411765,75.5272727 L65.5176471,76.5636364 C66.0294118,77.7727273 67.2235294,78.6363636 68.5882353,78.6363636 C70.463,78.6363636 72,77.0818182 72,75.1818182 C72,73.2835455 70.463,71.7272727 68.5882353,71.7272727 C67.3924118,71.7272727 66.5394706,72.2454545 65.8588235,73.1090909 L58.0100588,72.2454545 Z" id="Fill-5"></path>
                </g>
            </g>
        </g>
    </g>
</svg>