<?xml version="1.0" encoding="UTF-8"?>
<svg width="29px" height="29px" viewBox="0 0 29 29" version="1.1" xmlns="http://www.w3.org/2000/svg" xmlns:xlink="http://www.w3.org/1999/xlink">
    <!-- Generator: Sketch 55.1 (78136) - https://sketchapp.com -->
    <title>Group 2</title>
    <desc>Created with Sketch.</desc>
    <g id="Recomendacion-de-compartir" stroke="none" stroke-width="1" fill="none" fill-rule="evenodd">
        <g id="Catálogo_Ficha-de-producto-Región-Sur" transform="translate(-781.000000, -655.000000)">
            <g id="Header" transform="translate(0.000000, 243.000000)">
                <g id="Group-4-Copy" transform="translate(732.000000, 412.000000)">
                    <g id="Group-2" transform="translate(49.000000, 0.000000)">
                        <circle id="Oval" fill="#73C95D" cx="14.5" cy="14.5" r="14.5"></circle>
                        <path d="M18.868831,15.7877128 C18.8172167,15.6984165 18.6809279,15.6444815 18.4768321,15.5369687 C18.2717242,15.4294559 17.2657512,14.909394 17.0788602,14.8379569 C16.8912944,14.7665198 16.754331,14.7304441 16.6183795,14.9454697 C16.4824281,15.1604953 16.0900919,15.6444815 15.9703332,15.7877128 C15.8512492,15.9316585 15.7318278,15.9495178 15.5273947,15.842005 C15.3226242,15.7344922 14.6637827,15.5073223 13.8824837,14.7754495 C13.2742444,14.2057388 12.8636914,13.5024408 12.74427,13.287058 C12.6248487,13.0720324 12.7317881,12.9559471 12.8336674,12.8487915 C12.9261008,12.7523515 13.0387752,12.5980474 13.1409918,12.4726753 C13.2435457,12.3469461 13.2776179,12.2576497 13.345425,12.1140612 C13.4139067,11.9704727 13.3798345,11.8451006 13.3282202,11.7372306 C13.2772806,11.630075 12.8677396,10.5724491 12.6973786,10.1420407 C12.5270176,9.71198952 12.3566567,9.7834266 12.2372353,9.7834266 C12.117814,9.7834266 11.9815252,9.76556733 11.8452364,9.76556733 C11.7086103,9.76556733 11.4869724,9.81950232 11.2994067,10.0345279 C11.1121783,10.2495535 10.5835533,10.7696154 10.5835533,11.8268842 C10.5835533,12.8845101 11.3162741,13.9064174 11.418828,14.0496488 C11.5213819,14.1928801 12.8336674,16.433504 14.9134205,17.2939636 C16.9931737,18.154066 16.9931737,17.8672461 17.3686425,17.8311704 C17.7430992,17.7954518 18.5787113,17.3114657 18.7494096,16.8099774 C18.9194333,16.3074175 18.9194333,15.8773664 18.868831,15.7877128 M14.6546743,6.39659483 C10.7852876,6.39659483 7.63782668,9.70341707 7.63782668,13.7681867 C7.63782668,15.3812359 8.13474094,16.8749851 8.97440121,18.0901298 L8.09763261,20.8279557 L10.7940587,19.9207048 C11.9022483,20.6907965 13.2293771,21.1401357 14.6546743,21.1401357 C18.5233862,21.1401357 21.6711845,17.8336707 21.6711845,13.7689011 C21.6711845,9.70413144 18.5237235,6.39659483 14.6546743,6.39659483 M23,13.7681867 C23,18.6109061 19.263866,22.5363734 14.6546743,22.5363734 C13.1912567,22.5363734 11.8165618,22.140612 10.6203243,21.4455292 L6,23 L7.50626079,18.2955114 C6.74621475,16.9746398 6.30901117,15.4248125 6.30901117,13.7681867 C6.30901117,8.9258245 10.0451452,5 14.6546743,5 C19.2645407,5 23,8.9258245 23,13.7681867" id="Fill-3" fill="#FFFFFF"></path>
                    </g>
                </g>
            </g>
        </g>
    </g>
</svg>